<svg version="1.1" id="Layer_1" xmlns="http://www.w3.org/2000/svg" xmlns:xlink="http://www.w3.org/1999/xlink" x="0px" y="0px"
	 width="100%" viewBox="0 0 390 295" enable-background="new 0 0 390 295" xml:space="preserve">
<path fill="#1B2E4C" opacity="1.000000" stroke="none" 
	d="
M389.556641,1.228904 
	C392.091431,2.107895 390.936798,4.034139 390.937866,5.496675 
	C391.006866,98.772774 391.000000,192.048920 391.000000,285.325073 
	C391.000000,288.822937 392.371307,293.988403 390.655334,295.399475 
	C388.475586,297.191925 383.792084,295.992126 380.188110,295.992371 
	C254.431870,296.001495 128.675644,296.000000 2.459705,296.000000 
	C1.054859,294.452087 1.523436,292.742981 1.522994,291.117096 
	C1.497241,196.351288 1.499590,101.585495 1.501077,6.819694 
	C1.501160,1.507820 1.508402,1.501049 6.884498,1.500994 
	C132.295135,1.499708 257.705750,1.500251 383.116394,1.497757 
	C385.115326,1.497718 387.114838,1.541529 389.556641,1.228904 
z"/>
<path fill="#536278" opacity="1.000000" stroke="none" 
	d="
M389.531342,1.000000 
	C387.226654,2.698863 384.148438,1.962139 381.214172,1.963131 
	C258.097198,2.004771 134.980209,1.998608 11.863218,1.999852 
	C2.005749,1.999952 2.000148,2.004790 2.000011,11.677224 
	C1.998676,106.139046 1.999353,200.600861 1.999729,295.531342 
	C-0.091442,294.892151 1.063235,292.965973 1.062154,291.503448 
	C0.993175,198.229797 1.000000,104.956085 1.000000,11.682372 
	C1.000000,8.184608 -0.372216,3.029232 1.345904,1.606925 
	C3.513754,-0.187680 8.202592,1.008202 11.803895,1.007930 
	C137.556824,0.998430 263.309753,1.000000 389.531342,1.000000 
z"/>
<path fill="#2D3F5A" opacity="1.000000" stroke="none" 
	d="
M221.000000,228.000031 
	C271.664276,228.000198 321.828522,227.997269 371.992798,228.009811 
	C374.489990,228.010437 377.005249,227.981354 379.480164,228.255127 
	C383.576538,228.708298 385.728333,231.188553 385.810394,235.284012 
	C385.896851,239.596634 383.783783,242.239990 379.428345,242.769836 
	C377.451630,243.010300 375.437408,243.004608 373.440186,243.004776 
	C255.279175,243.014877 137.118179,243.015411 18.957167,243.002197 
	C16.795204,243.001953 14.595204,243.046387 12.479671,242.682297 
	C8.709585,242.033463 6.595190,239.512878 6.430038,235.772598 
	C6.261235,231.949600 8.390719,229.337524 12.062569,228.567993 
	C14.797769,227.994751 17.688272,228.022461 20.509708,228.021317 
	C87.173134,227.994568 153.836563,228.000275 221.000000,228.000031 
z"/>
<path fill="#2D3F5A" opacity="1.000000" stroke="none" 
	d="
M380.438904,275.144073 
	C383.915497,275.643188 385.893372,277.191925 385.602844,280.477875 
	C385.306580,283.829163 382.808777,284.740082 379.918915,284.892822 
	C377.924133,284.998230 375.922241,284.995636 373.923523,284.995697 
	C255.299301,285.000000 136.675064,285.002014 18.050838,284.983490 
	C15.393797,284.983093 12.705944,284.948944 10.088799,284.555664 
	C7.669790,284.192139 6.341752,282.465973 6.360893,279.957123 
	C6.380079,277.442383 7.771406,275.888702 10.169423,275.394531 
	C11.623559,275.094849 13.146208,275.025757 14.638093,275.025635 
	C135.927933,275.016754 257.217773,275.024872 378.507629,275.034637 
	C379.006866,275.034668 379.506073,275.076996 380.438904,275.144073 
z"/>
<path fill="#2C3E59" opacity="1.000000" stroke="none" 
	d="
M376.594421,33.886086 
	C309.989471,33.918606 243.838989,33.933258 177.688522,33.928295 
	C176.028793,33.928169 174.336304,33.879433 172.715729,33.563183 
	C168.564392,32.753067 166.242630,30.146805 166.294922,25.892843 
	C166.347351,21.626635 168.778076,19.121845 172.926132,18.393839 
	C174.554977,18.107965 176.242844,18.069111 177.903854,18.068714 
	C243.221313,18.053082 308.538788,18.054714 373.856232,18.056345 
	C374.689178,18.056366 375.523407,18.060575 376.354828,18.104870 
	C382.355164,18.424541 385.547516,20.994970 385.746735,25.652405 
	C385.946381,30.320036 383.219910,32.894615 376.594421,33.886086 
z"/>
<path fill="#2C3E59" opacity="1.000000" stroke="none" 
	d="
M370.934601,68.951393 
	C307.303284,68.951653 244.161423,68.956894 181.019562,68.935730 
	C178.194824,68.934776 175.325577,68.961670 172.556107,68.500725 
	C168.622345,67.845985 166.379364,65.242760 166.292770,61.226116 
	C166.201248,56.982227 168.439331,54.272354 172.599777,53.475147 
	C174.705093,53.071739 176.907593,53.066875 179.066208,53.066227 
	C243.707474,53.046814 308.348724,53.045261 372.989990,53.071808 
	C375.310089,53.072758 377.688629,53.120632 379.936859,53.615200 
	C383.631866,54.428036 385.634155,57.013233 385.712250,60.784096 
	C385.794922,64.777534 383.806366,67.590233 379.870575,68.386909 
	C377.129333,68.941795 374.244659,68.788391 370.934601,68.951393 
z"/>
<path fill="#2C3E59" opacity="1.000000" stroke="none" 
	d="
M327.000000,103.951782 
	C277.688110,103.951553 228.876205,103.959190 180.064331,103.930466 
	C177.410492,103.928909 174.692627,103.929054 172.118011,103.388283 
	C168.185776,102.562355 166.200226,99.765404 166.287918,95.773148 
	C166.370728,92.002434 168.381378,89.441689 172.072479,88.607170 
	C174.157059,88.135864 176.366913,88.074089 178.520447,88.073227 
	C243.491898,88.047302 308.463348,88.047318 373.434814,88.072479 
	C375.588837,88.073311 377.802734,88.117294 379.883820,88.596596 
	C383.803802,89.499413 385.799683,92.234360 385.712067,96.226654 
	C385.629333,99.997391 383.622223,102.578552 379.927002,103.387749 
	C377.678162,103.880203 375.300415,103.920311 372.979919,103.927101 
	C357.820038,103.971451 342.660004,103.951134 327.000000,103.951782 
z"/>
<path fill="#2D3F5A" opacity="1.000000" stroke="none" 
	d="
M240.000000,155.984406 
	C284.989441,155.984848 329.478882,155.977585 373.968323,156.006363 
	C376.455414,156.007965 379.000671,156.031006 381.413818,156.541107 
	C384.125488,157.114288 385.658722,159.124954 385.665588,161.982101 
	C385.672455,164.843658 384.125702,166.782532 381.429871,167.448761 
	C379.519897,167.920761 377.471588,167.973846 375.484955,167.974579 
	C309.167358,167.999252 242.849762,168.001175 176.532166,167.986374 
	C169.294891,167.984756 166.320251,166.183167 166.314255,161.999161 
	C166.308258,157.810913 169.283325,156.008682 176.514984,155.999008 
	C197.509964,155.970871 218.504990,155.986191 240.000000,155.984406 
z"/>
<path fill="#2D3F5A" opacity="1.000000" stroke="none" 
	d="
M188.001068,202.999969 
	C182.669693,202.969055 177.834351,203.043396 173.007599,202.873260 
	C169.283173,202.741974 166.359985,201.166260 166.375565,196.971146 
	C166.391113,192.779877 169.321915,191.314911 173.046616,191.092346 
	C175.040314,190.973221 177.043640,190.989014 179.042633,190.988876 
	C243.694046,190.984207 308.345459,190.980682 372.996857,191.000610 
	C375.655243,191.001434 378.354492,190.984344 380.961060,191.418228 
	C383.913757,191.909744 385.664886,193.915604 385.657898,197.010300 
	C385.650909,200.111618 383.864777,202.070374 380.922302,202.577805 
	C378.482239,202.998596 375.949066,202.983215 373.457092,202.984009 
	C311.804993,203.003677 250.152878,202.999710 188.001068,202.999969 
z"/>
<path fill="#2D3F5A" opacity="1.000000" stroke="none" 
	d="
M14.000281,98.000000 
	C14.001122,72.362869 13.985744,47.225712 14.028187,22.088648 
	C14.032376,19.607267 14.035041,17.031748 14.665244,14.666971 
	C15.685569,10.838300 18.440897,8.858637 22.521513,9.256701 
	C26.429543,9.637931 28.441298,12.025385 28.807339,15.814151 
	C28.998926,17.797205 29.005638,19.803209 29.006191,21.798874 
	C29.016783,59.920750 29.014864,98.042625 29.010866,136.164505 
	C29.010710,137.662338 29.035210,139.165359 28.926350,140.657074 
	C28.572447,145.506577 25.798050,148.546692 21.703417,148.654068 
	C17.642130,148.760574 14.379837,145.790253 14.216345,140.944107 
	C13.913403,131.964462 14.038574,122.970070 14.003888,113.981743 
	C13.983974,108.821236 14.000280,103.660583 14.000281,98.000000 
z"/>
<path fill="#2D3F5A" opacity="1.000000" stroke="none" 
	d="
M61.879417,148.639709 
	C56.048847,148.163910 54.158020,144.592239 54.093090,139.735687 
	C53.972836,130.740479 54.005524,121.742989 54.003281,112.746437 
	C53.995811,82.757034 53.991516,52.767624 54.019039,22.778244 
	C54.021324,20.287188 53.960911,17.729876 54.476368,15.320305 
	C55.347191,11.249525 57.992023,8.917529 62.347485,9.244085 
	C66.521584,9.557043 68.503677,12.144163 68.859550,16.143433 
	C68.962761,17.303320 68.999260,18.472664 68.999481,19.637686 
	C69.006836,59.123714 68.990883,98.609764 69.025520,138.095764 
	C69.029945,143.139206 68.256966,147.518555 61.879417,148.639709 
z"/>
<path fill="#2D3F5A" opacity="1.000000" stroke="none" 
	d="
M109.015587,121.999924 
	C108.993393,128.492538 109.105576,134.489624 108.907822,140.476471 
	C108.739388,145.575180 105.649040,148.741272 101.384888,148.657791 
	C97.363129,148.579056 94.593719,145.548843 94.135330,140.627014 
	C93.996742,139.138947 94.008522,137.633713 94.008278,136.136353 
	C94.002090,98.014473 93.990799,59.892582 94.032776,21.770752 
	C94.035500,19.295031 94.097733,16.716852 94.768829,14.368215 
	C95.797554,10.767999 98.500877,8.926569 102.341499,9.235909 
	C106.230957,9.549182 108.386688,11.820697 108.776337,15.635045 
	C109.012421,17.946093 109.004929,20.288063 109.005875,22.616182 
	C109.019257,55.577435 109.015297,88.538689 109.015587,121.999924 
z"/>
<path fill="#2C3E59" opacity="1.000000" stroke="none" 
	d="
M26.005440,166.003052 
	C40.987053,166.003937 55.470062,165.988907 69.952957,166.023010 
	C72.109375,166.028107 74.300720,166.065445 76.412758,166.442032 
	C79.302711,166.957306 81.250404,168.760315 81.536629,171.787735 
	C81.827400,174.863312 80.016472,176.755875 77.396347,177.962540 
	C75.377983,178.892059 73.191818,178.926605 71.025650,178.928009 
	C53.046848,178.939667 35.067883,178.977402 17.089293,178.914124 
	C10.166050,178.889771 6.509053,176.415192 6.706731,172.222336 
	C6.897943,168.166718 10.322215,166.093094 17.016790,166.015976 
	C19.846466,165.983368 22.676773,166.005676 26.005440,166.003052 
z"/>
<path fill="#2D3F5A" opacity="1.000000" stroke="none" 
	d="
M32.000160,202.999969 
	C25.837900,202.978348 20.174610,203.013290 14.513580,202.916321 
	C10.342597,202.844864 7.228448,201.186157 7.254902,196.515640 
	C7.281940,191.741989 10.795617,191.028870 14.571577,191.025269 
	C34.224030,191.006500 53.876514,191.011017 73.528984,191.021149 
	C77.513443,191.023209 81.007904,191.930786 81.463104,196.704666 
	C81.815445,200.399902 78.789932,202.851868 73.469818,202.905701 
	C59.814323,203.043854 46.156807,202.981918 32.000160,202.999969 
z"/>
</svg>