<svg width="391" height="315" viewBox="0 0 391 315" fill="none" xmlns="http://www.w3.org/2000/svg">
<g clip-path="url(#clip0_1_18)">
<path d="M389.033 0C391.574 0.938086 390.417 2.99383 390.418 4.5547C390.487 104.102 390.48 203.649 390.48 303.196C390.48 306.929 391.854 312.442 390.134 313.948C387.949 315.861 383.255 314.58 379.642 314.581C253.586 314.59 127.53 314.589 1.0138 314.589C-0.39439 312.937 0.0753034 311.113 0.0748603 309.378C0.049046 208.241 0.0514006 107.104 0.0528911 5.96666C0.0529743 0.297668 0.0602337 0.290442 5.44914 0.290383C131.159 0.28901 256.868 0.28959 382.578 0.286928C384.581 0.286887 386.585 0.333643 389.033 0Z" fill="#1B2E4C"/>
<path d="M220 245C270.664 245 320.829 244.997 370.993 245.01C373.49 245.01 376.005 244.981 378.48 245.255C382.577 245.708 384.728 248.189 384.81 252.284C384.897 256.597 382.784 259.24 378.428 259.77C376.452 260.01 374.437 260.005 372.44 260.005C254.279 260.015 136.118 260.015 17.9572 260.002C15.7952 260.002 13.5952 260.046 11.4797 259.682C7.70958 259.033 5.59519 256.513 5.43004 252.773C5.26123 248.95 7.39072 246.338 11.0626 245.568C13.7978 244.995 16.6883 245.022 19.5097 245.021C86.1731 244.995 152.837 245 220 245Z" fill="#2D3F5A"/>
<path d="M379.439 292.144C382.915 292.643 384.893 294.192 384.603 297.478C384.307 300.829 381.809 301.74 378.919 301.893C376.924 301.998 374.922 301.996 372.924 301.996C254.299 302 135.675 302.002 17.0508 301.983C14.3938 301.983 11.7059 301.949 9.0888 301.556C6.66979 301.192 5.34175 299.466 5.36089 296.957C5.38008 294.442 6.77141 292.889 9.16942 292.395C10.6236 292.095 12.1462 292.026 13.6381 292.026C134.928 292.017 256.218 292.025 377.508 292.035C378.007 292.035 378.506 292.077 379.439 292.144Z" fill="#2D3F5A"/>
<path d="M375.594 32.8861C308.989 32.9186 242.839 32.9333 176.689 32.9283C175.029 32.9282 173.336 32.8794 171.716 32.5632C167.564 31.7531 165.243 29.1468 165.295 24.8928C165.347 20.6266 167.778 18.1218 171.926 17.3938C173.555 17.108 175.243 17.0691 176.904 17.0687C242.221 17.0531 307.539 17.0547 372.856 17.0563C373.689 17.0564 374.523 17.0606 375.355 17.1049C381.355 17.4245 384.548 19.995 384.747 24.6524C384.946 29.32 382.22 31.8946 375.594 32.8861Z" fill="#2C3E59"/>
<path d="M369.935 67.9514C306.303 67.9517 243.161 67.9569 180.02 67.9357C177.195 67.9348 174.326 67.9617 171.556 67.5007C167.622 66.846 165.379 64.2428 165.293 60.2261C165.201 55.9822 167.439 53.2724 171.6 52.4751C173.705 52.0717 175.908 52.0669 178.066 52.0662C242.707 52.0468 307.349 52.0453 371.99 52.0718C374.31 52.0728 376.689 52.1206 378.937 52.6152C382.632 53.428 384.634 56.0132 384.712 59.7841C384.795 63.7775 382.806 66.5902 378.871 67.3869C376.129 67.9418 373.245 67.7884 369.935 67.9514Z" fill="#2C3E59"/>
<path d="M326 102.952C276.688 102.952 227.876 102.959 179.064 102.93C176.41 102.929 173.693 102.929 171.118 102.388C167.186 101.562 165.2 98.7654 165.288 94.7731C165.371 91.0024 167.381 88.4417 171.072 87.6072C173.157 87.1359 175.367 87.0741 177.52 87.0732C242.492 87.0473 307.463 87.0473 372.435 87.0725C374.589 87.0733 376.803 87.1173 378.884 87.5966C382.804 88.4994 384.8 91.2344 384.712 95.2267C384.629 98.9974 382.622 101.579 378.927 102.388C376.678 102.88 374.3 102.92 371.98 102.927C356.82 102.971 341.66 102.951 326 102.952Z" fill="#2C3E59"/>
<path d="M239 172.984C283.989 172.985 328.479 172.978 372.968 173.006C375.455 173.008 378.001 173.031 380.414 173.541C383.125 174.114 384.659 176.125 384.666 178.982C384.672 181.844 383.126 183.783 380.43 184.449C378.52 184.921 376.472 184.974 374.485 184.975C308.167 184.999 241.85 185.001 175.532 184.986C168.295 184.985 165.32 183.183 165.314 178.999C165.308 174.811 168.283 173.009 175.515 172.999C196.51 172.971 217.505 172.986 239 172.984Z" fill="#2D3F5A"/>
<path d="M239.686 124.003C284.675 124.003 329.165 123.996 373.654 124.025C376.141 124.026 378.686 124.049 381.1 124.559C383.811 125.132 385.344 127.143 385.351 130C385.358 132.862 383.811 134.801 381.116 135.467C379.206 135.939 377.157 135.992 375.171 135.993C308.853 136.017 242.536 136.019 176.218 136.005C168.981 136.003 166.006 134.201 166 130.017C165.994 125.829 168.969 124.027 176.201 124.017C197.196 123.989 218.191 124.004 239.686 124.003Z" fill="#2D3F5A"/>
<path d="M187.001 220C181.67 219.969 176.834 220.043 172.008 219.873C168.283 219.742 165.36 218.166 165.376 213.971C165.391 209.78 168.322 208.315 172.047 208.092C174.04 207.973 176.044 207.989 178.043 207.989C242.694 207.984 307.345 207.981 371.997 208.001C374.655 208.001 377.354 207.984 379.961 208.418C382.914 208.91 384.665 210.916 384.658 214.01C384.651 217.112 382.865 219.07 379.922 219.578C377.482 219.999 374.949 219.983 372.457 219.984C310.805 220.004 249.153 220 187.001 220Z" fill="#2D3F5A"/>
<path d="M13.0003 97C13.0011 71.3629 12.9857 46.2257 13.0282 21.0886C13.0324 18.6073 13.035 16.0317 13.6652 13.667C14.6856 9.8383 17.4409 7.85864 21.5215 8.2567C25.4295 8.63793 27.4413 11.0254 27.8073 14.8142C27.9989 16.7972 28.0056 18.8032 28.0062 20.7989C28.0168 58.9207 28.0149 97.0426 28.0109 135.165C28.0107 136.662 28.0352 138.165 27.9263 139.657C27.5724 144.507 24.798 147.547 20.7034 147.654C16.6421 147.761 13.3798 144.79 13.2163 139.944C12.9134 130.964 13.0386 121.97 13.0039 112.982C12.984 107.821 13.0003 102.661 13.0003 97Z" fill="#2D3F5A"/>
<path d="M60.8794 147.64C55.0488 147.164 53.158 143.592 53.0931 138.736C52.9728 129.74 53.0055 120.743 53.0033 111.746C52.9958 81.757 52.9915 51.7676 53.019 21.7782C53.0213 19.2872 52.9609 16.7299 53.4764 14.3203C54.3472 10.2495 56.992 7.91753 61.3475 8.24409C65.5216 8.55704 67.5037 11.1442 67.8596 15.1434C67.9628 16.3033 67.9993 17.4727 67.9995 18.6377C68.0068 58.1237 67.9909 97.6098 68.0255 137.096C68.0299 142.139 67.257 146.519 60.8794 147.64Z" fill="#2D3F5A"/>
<path d="M108.016 121C107.993 127.493 108.106 133.49 107.908 139.476C107.739 144.575 104.649 147.741 100.385 147.658C96.3631 147.579 93.5937 144.549 93.1353 139.627C92.9967 138.139 93.0085 136.634 93.0083 135.136C93.0021 97.0145 92.9908 58.8926 93.0328 20.7708C93.0355 18.295 93.0977 15.7169 93.7688 13.3682C94.7976 9.768 97.5009 7.92657 101.342 8.23591C105.231 8.54918 107.387 10.8207 107.776 14.635C108.012 16.9461 108.005 19.2881 108.006 21.6162C108.019 54.5774 108.015 87.5387 108.016 121Z" fill="#2D3F5A"/>
<path d="M25.0054 183.003C39.9871 183.004 54.4701 182.989 68.953 183.023C71.1094 183.028 73.3007 183.065 75.4128 183.442C78.3027 183.957 80.2504 185.76 80.5366 188.788C80.8274 191.863 79.0165 193.756 76.3963 194.963C74.378 195.892 72.1918 195.927 70.0256 195.928C52.0468 195.94 34.0679 195.977 16.0893 195.914C9.16605 195.89 5.50905 193.415 5.70673 189.222C5.89794 185.167 9.32222 183.093 16.0168 183.016C18.8465 182.983 21.6768 183.006 25.0054 183.003Z" fill="#2C3E59"/>
<path d="M31.0002 220C24.8379 219.978 19.1746 220.013 13.5136 219.916C9.3426 219.845 6.22845 218.186 6.2549 213.516C6.28194 208.742 9.79562 208.029 13.5716 208.025C33.224 208.007 52.8765 208.011 72.529 208.021C76.5134 208.023 80.0079 208.931 80.4631 213.705C80.8154 217.4 77.7899 219.852 72.4698 219.906C58.8143 220.044 45.1568 219.982 31.0002 220Z" fill="#2D3F5A"/>
</g>
<defs>
<clipPath id="clip0_1_18">
<rect width="391" height="315" fill="white"/>
</clipPath>
</defs>
</svg>
