<?xml version="1.0" encoding="UTF-8" standalone="no"?>
<!DOCTYPE svg PUBLIC "-//W3C//DTD SVG 1.1//EN" "http://www.w3.org/Graphics/SVG/1.1/DTD/svg11.dtd">
<svg width="100%" height="100%" viewBox="0 0 386 271" version="1.1" xmlns="http://www.w3.org/2000/svg" xmlns:xlink="http://www.w3.org/1999/xlink" xml:space="preserve" xmlns:serif="http://www.serif.com/" style="fill-rule:evenodd;clip-rule:evenodd;stroke-linejoin:round;stroke-miterlimit:2;">
    <path d="M247,272C166,272 85.5,271.972 5,272.096C1.576,272.101 0.899,271.425 0.904,268C1.026,180.334 1.026,92.667 0.904,5C0.899,1.577 1.575,0.902 5,0.905C131,1.018 257,1.018 382.999,0.905C386.422,0.902 387.101,1.574 387.096,5C386.974,92.666 386.974,180.333 387.096,267.999C387.1,271.422 386.427,272.109 383,272.098C337.834,271.951 292.667,272 247,272Z" style="fill:rgb(82,11,0);fill-rule:nonzero;"/>
    <path d="M58,228.001C161.121,228.001 263.741,227.998 366.362,228.019C369.185,228.019 372.068,227.96 374.818,228.482C378.967,229.271 381.157,232.058 380.859,236.36C380.572,240.498 378.067,242.623 374.035,242.933C371.88,243.099 369.707,243.078 367.543,243.078C251.595,243.084 135.646,243.084 19.698,243.078C17.534,243.077 15.354,243.133 13.208,242.91C8.951,242.466 6.451,239.952 6.341,235.72C6.237,231.679 8.685,229.213 12.552,228.409C14.485,228.007 16.525,228.025 18.517,228.02C31.512,227.989 44.506,228.002 58,228.001Z" style="fill:rgb(122,17,0);fill-rule:nonzero;"/>
    <path d="M190,17.165C248.307,17.165 306.114,17.156 363.921,17.186C366.908,17.188 369.954,17.209 372.866,17.772C376.873,18.548 379.566,21.128 379.341,25.416C379.11,29.814 376.43,32.372 371.966,32.775C370.146,32.939 368.305,32.924 366.474,32.924C301.837,32.931 237.199,32.93 172.562,32.926C170.897,32.926 169.225,32.956 167.567,32.824C162.628,32.43 159.651,29.821 159.341,25.72C159.022,21.492 161.874,18.086 167.034,17.585C172.321,17.072 177.677,17.261 183.003,17.169C185.168,17.131 187.334,17.164 190,17.165Z" style="fill:rgb(122,17,0);fill-rule:nonzero;"/>
    <path d="M229,52.165C274.48,52.165 319.459,52.152 364.439,52.192C367.42,52.195 370.479,52.258 373.363,52.909C377.139,53.762 379.581,56.387 379.348,60.433C379.109,64.576 376.684,67.192 372.443,67.707C370.468,67.947 368.453,67.921 366.456,67.921C301.819,67.931 237.182,67.933 172.544,67.915C170.218,67.915 167.848,67.948 165.577,67.534C161.896,66.862 159.656,64.479 159.377,60.699C159.094,56.874 161.123,54.407 164.627,53.112C167.339,52.11 170.194,52.174 173.025,52.173C191.517,52.163 210.008,52.165 229,52.165Z" style="fill:rgb(122,17,0);fill-rule:nonzero;"/>
    <path d="M325,102.93C274.023,102.93 223.546,102.935 173.069,102.916C170.576,102.915 168.04,102.959 165.601,102.535C161.917,101.894 159.67,99.503 159.379,95.724C159.084,91.901 161.103,89.429 164.603,88.119C166.987,87.227 169.498,87.18 172.001,87.18C236.971,87.175 301.942,87.171 366.912,87.197C368.899,87.198 370.938,87.298 372.863,87.742C376.847,88.66 379.562,91.121 379.341,95.408C379.115,99.806 376.444,102.529 371.973,102.742C366.487,103.004 360.983,102.913 355.486,102.925C345.491,102.946 335.495,102.93 325,102.93Z" style="fill:rgb(122,17,0);fill-rule:nonzero;"/>
    <path d="M192,156.001C250.467,156.001 308.435,155.999 366.402,156.008C368.732,156.008 371.078,155.965 373.389,156.203C376.836,156.559 378.929,158.476 378.884,162.09C378.839,165.699 376.688,167.506 373.256,167.89C371.771,168.056 370.264,168.072 368.767,168.072C302.471,168.08 236.175,168.08 169.879,168.07C168.382,168.07 166.874,168.046 165.39,167.871C162.029,167.476 159.623,165.765 159.534,162.206C159.437,158.357 161.941,156.356 165.521,156.209C171.841,155.951 178.175,156.046 184.504,156.003C186.836,155.987 189.168,156.001 192,156.001Z" style="fill:rgb(122,17,0);fill-rule:nonzero;"/>
    <path d="M353,203.085C292.534,203.085 232.567,203.089 172.601,203.071C169.941,203.07 167.249,203.1 164.63,202.716C161.469,202.253 159.475,200.243 159.518,196.932C159.561,193.604 161.671,191.788 164.808,191.283C166.603,190.994 168.459,191.014 170.288,191.014C236.417,191.002 302.547,190.999 368.676,191.011C376.125,191.012 378.815,192.593 378.911,196.866C379.012,201.361 376.22,203.038 368.491,203.076C363.494,203.101 358.497,203.084 353,203.085Z" style="fill:rgb(122,17,0);fill-rule:nonzero;"/>
    <path d="M29.052,137.693C28.386,144.351 26.288,146.913 21.705,146.964C17.648,147.01 15.038,145.062 14.286,141.025C13.984,139.404 14.016,137.707 14.016,136.045C14.003,96.898 14.004,57.751 14.015,18.604C14.015,17.107 13.985,15.585 14.226,14.117C14.906,9.97 17.337,7.402 21.621,7.426C25.659,7.449 28.062,9.895 28.759,13.817C29.076,15.605 29.067,17.465 29.068,19.293C29.078,58.607 29.069,97.921 29.052,137.693Z" style="fill:rgb(122,17,0);fill-rule:nonzero;"/>
    <path d="M68.734,141.224C67.24,146.094 64.012,147.611 59.702,146.762C55.292,145.894 54.053,142.532 54.047,138.516C54.02,119.522 54.008,100.527 54.002,81.533C53.996,61.038 53.996,40.544 54.011,20.05C54.013,18.053 53.94,16.025 54.248,14.066C54.9,9.911 57.39,7.371 61.677,7.428C65.719,7.482 68.055,9.958 68.783,13.872C69.024,15.172 69.058,16.525 69.058,17.854C69.071,57.509 69.071,97.165 69.057,136.82C69.057,138.149 68.901,139.479 68.734,141.224Z" style="fill:rgb(122,17,0);fill-rule:nonzero;"/>
    <path d="M94.001,104C94.002,75.355 93.991,47.21 94.013,19.065C94.019,11.027 96.52,7.27 101.655,7.364C106.634,7.456 109.061,11.099 109.066,18.823C109.091,57.793 109.081,96.763 109.067,135.733C109.067,137.395 109.072,139.083 108.799,140.713C108.085,144.979 105.436,147.106 101.133,146.947C97.022,146.794 94.473,144.495 94.241,140.463C93.908,134.651 94.034,128.813 94.007,122.986C93.979,116.824 94.001,110.662 94.001,104Z" style="fill:rgb(122,17,0);fill-rule:nonzero;"/>
    <path d="M50,178.934C38.859,178.933 28.218,178.946 17.577,178.917C15.754,178.912 13.892,178.922 12.116,178.579C8.854,177.948 6.571,176.019 6.571,172.516C6.571,169.014 8.825,167.104 12.119,166.48C13.576,166.204 15.096,166.18 16.587,166.179C34.877,166.16 53.166,166.139 71.455,166.182C78.147,166.198 81.563,168.427 81.548,172.527C81.533,176.625 78.07,178.862 71.449,178.913C64.467,178.968 57.483,178.931 50,178.934Z" style="fill:rgb(122,17,0);fill-rule:nonzero;"/>
    <path d="M20.064,203.085C17.245,203.026 14.9,203.109 12.587,202.875C8.994,202.512 6.553,200.641 6.658,196.794C6.756,193.202 9.168,191.493 12.534,191.184C14.85,190.97 17.193,191.009 19.525,191.008C36.353,190.996 53.181,190.999 70.009,191.007C71.674,191.008 73.346,190.992 75.004,191.121C78.804,191.418 81.54,193.195 81.394,197.288C81.26,201.056 78.667,202.871 75.033,202.96C69.705,203.09 64.372,203.074 59.041,203.08C46.212,203.094 33.382,203.085 20.064,203.085Z" style="fill:rgb(122,17,0);fill-rule:nonzero;"/>
</svg>
