<svg version="1.1" id="Layer_1" xmlns="http://www.w3.org/2000/svg" xmlns:xlink="http://www.w3.org/1999/xlink" x="0px" y="0px"
	 width="100%" viewBox="0 0 386 271" enable-background="new 0 0 386 271" xml:space="preserve">
<path fill="#1C2E31" opacity="1.000000" stroke="none" 
	d="
M247.000000,272.000000 
	C166.000046,272.000000 85.500038,271.972168 5.000278,272.096069 
	C1.576187,272.101318 0.899393,271.424500 0.904139,268.000000 
	C1.025624,180.333542 1.025606,92.666855 0.904194,5.000408 
	C0.899453,1.576768 1.575360,0.901794 4.999806,0.904866 
	C130.999634,1.017900 256.999603,1.017872 382.999420,0.904971 
	C386.422241,0.901904 387.100616,1.574404 387.095886,4.999647 
	C386.974335,92.666092 386.974426,180.332779 387.095764,267.999237 
	C387.100494,271.422089 386.427246,272.109192 383.000336,272.098022 
	C337.833923,271.950836 292.666870,272.000000 247.000000,272.000000 
z"/>
<path fill="#335156" opacity="1.000000" stroke="none" 
	d="
M58.000000,228.001251 
	C161.120712,228.001373 263.741425,227.998215 366.362122,228.018646 
	C369.185455,228.019211 372.068359,227.959625 374.818115,228.482315 
	C378.967102,229.270935 381.156525,232.057816 380.858734,236.360428 
	C380.572388,240.498474 378.067352,242.622513 374.035095,242.932938 
	C371.879852,243.098846 369.707336,243.077866 367.542633,243.077988 
	C251.594559,243.084076 135.646484,243.084213 19.698416,243.077530 
	C17.534002,243.077393 15.354473,243.133179 13.208381,242.909592 
	C8.951468,242.466110 6.450765,239.951569 6.341268,235.720444 
	C6.236690,231.679352 8.684864,229.212997 12.551818,228.409058 
	C14.484804,228.007202 16.525167,228.025360 18.517372,228.020462 
	C31.511520,227.988525 44.505779,228.002365 58.000000,228.001251 
z"/>
<path fill="#324F54" opacity="1.000000" stroke="none" 
	d="
M190.000015,17.164667 
	C248.307053,17.164577 306.114105,17.156046 363.921173,17.186094 
	C366.907776,17.187647 369.954285,17.208565 372.866089,17.772263 
	C376.872772,18.547918 379.565857,21.127914 379.340820,25.415762 
	C379.110046,29.813601 376.430237,32.372219 371.966370,32.774940 
	C370.145721,32.939194 368.305359,32.923637 366.473969,32.923832 
	C301.836700,32.930664 237.199417,32.930298 172.562134,32.925957 
	C170.896774,32.925842 169.224518,32.956360 167.567337,32.824112 
	C162.628220,32.429947 159.650574,29.821177 159.341248,25.719902 
	C159.022385,21.491768 161.874191,18.085739 167.034332,17.584890 
	C172.321030,17.071760 177.676926,17.260771 183.002991,17.168819 
	C185.168045,17.131439 187.334320,17.163626 190.000015,17.164667 
z"/>
<path fill="#324F54" opacity="1.000000" stroke="none" 
	d="
M229.000000,52.164669 
	C274.479553,52.164734 319.459137,52.151768 364.438660,52.192184 
	C367.420074,52.194862 370.479065,52.258484 373.362976,52.909466 
	C377.139130,53.761837 379.581085,56.386948 379.347595,60.433487 
	C379.108521,64.576500 376.684448,67.192009 372.443054,67.707260 
	C370.467621,67.947235 368.453064,67.921158 366.456238,67.921455 
	C301.818939,67.931290 237.181641,67.933144 172.544342,67.915337 
	C170.218491,67.914696 167.847946,67.948463 165.577057,67.534119 
	C161.896057,66.862473 159.656097,64.478676 159.376816,60.699406 
	C159.094131,56.874493 161.122787,54.406879 164.626678,53.111988 
	C167.339218,52.109547 170.193634,52.174084 173.025253,52.172569 
	C191.516830,52.162678 210.008423,52.165497 229.000000,52.164669 
z"/>
<path fill="#324F54" opacity="1.000000" stroke="none" 
	d="
M325.000000,102.930023 
	C274.022949,102.929916 223.545898,102.934776 173.068848,102.915825 
	C170.576263,102.914886 168.039734,102.959442 165.601486,102.535347 
	C161.916595,101.894409 159.669998,99.502762 159.378845,95.723961 
	C159.084259,91.900658 161.103012,89.429474 164.603027,88.119347 
	C166.986786,87.227051 169.498489,87.179932 172.000977,87.179733 
	C236.971420,87.174713 301.941864,87.171059 366.912292,87.197388 
	C368.899384,87.198189 370.937988,87.298027 372.862640,87.741753 
	C376.847473,88.660477 379.562134,91.121208 379.341278,95.408394 
	C379.114807,99.805519 376.444244,102.529388 371.973083,102.742363 
	C366.486969,103.003670 360.982849,102.913071 355.486420,102.924751 
	C345.490967,102.945984 335.495483,102.930420 325.000000,102.930023 
z"/>
<path fill="#335156" opacity="1.000000" stroke="none" 
	d="
M192.000000,156.000671 
	C250.467361,156.000763 308.434723,155.998917 366.402069,156.008041 
	C368.732239,156.008408 371.077637,155.964935 373.389008,156.203323 
	C376.835602,156.558807 378.929016,158.476013 378.884125,162.090363 
	C378.839325,165.699219 376.688446,167.506149 373.256439,167.890182 
	C371.771423,168.056351 370.264038,168.072052 368.766815,168.072220 
	C302.470825,168.079987 236.174850,168.079575 169.878860,168.070023 
	C168.381836,168.069809 166.873856,168.046173 165.390060,167.871445 
	C162.029251,167.475693 159.623444,165.765213 159.533997,162.205872 
	C159.437286,158.357452 161.940735,156.355728 165.521179,156.209259 
	C171.841019,155.950745 178.175491,156.045883 184.503891,156.003204 
	C186.835831,155.987488 189.167953,156.000656 192.000000,156.000671 
z"/>
<path fill="#335156" opacity="1.000000" stroke="none" 
	d="
M352.999939,203.085388 
	C292.533722,203.085068 232.567490,203.088501 172.601242,203.070831 
	C169.941254,203.070038 167.248627,203.099976 164.629791,202.715958 
	C161.469254,202.252518 159.475372,200.243301 159.518051,196.932098 
	C159.560974,193.603806 161.670883,191.788132 164.807968,191.283005 
	C166.603058,190.993958 168.459259,191.014404 170.287964,191.014069 
	C236.417404,191.002075 302.546844,190.999435 368.676270,191.010559 
	C376.125427,191.011826 378.814667,192.593338 378.910889,196.866348 
	C379.012085,201.361267 376.220337,203.038422 368.491425,203.076340 
	C363.494385,203.100845 358.497101,203.083649 352.999939,203.085388 
z"/>
<path fill="#335156" opacity="1.000000" stroke="none" 
	d="
M29.051704,137.693451 
	C28.385702,144.350967 26.287907,146.912964 21.705000,146.964371 
	C17.647789,147.009872 15.037874,145.062363 14.286146,141.024628 
	C13.984357,139.403625 14.016438,137.707352 14.015887,136.045288 
	C14.002934,96.898071 14.004202,57.750858 14.014766,18.603647 
	C14.015170,17.106651 13.985351,15.585293 14.226113,14.117355 
	C14.906375,9.969768 17.336729,7.401740 21.621077,7.426133 
	C25.659233,7.449125 28.062487,9.895066 28.758863,13.816512 
	C29.076412,15.604689 29.067303,17.465384 29.067778,19.293222 
	C29.077993,58.606983 29.068558,97.920746 29.051704,137.693451 
z"/>
<path fill="#335156" opacity="1.000000" stroke="none" 
	d="
M68.733627,141.224213 
	C67.239510,146.093842 64.011665,147.610703 59.701630,146.762207 
	C55.292446,145.894211 54.052940,142.531815 54.047222,138.516235 
	C54.020157,119.521729 54.008274,100.527184 54.002251,81.532654 
	C53.995747,61.038425 53.996109,40.544189 54.011200,20.049969 
	C54.012669,18.053013 53.940369,16.025042 54.247803,14.065676 
	C54.899635,9.911372 57.389717,7.371037 61.677124,7.428099 
	C65.719215,7.481897 68.055435,9.958260 68.782768,13.872240 
	C69.024353,15.172238 69.057549,16.525028 69.057991,17.853725 
	C69.071190,57.509190 69.070702,97.164658 69.057358,136.820129 
	C69.056908,138.149399 68.900864,139.478607 68.733627,141.224213 
z"/>
<path fill="#335156" opacity="1.000000" stroke="none" 
	d="
M94.000656,104.000000 
	C94.002037,75.355057 93.990898,47.210102 94.012726,19.065178 
	C94.018967,11.027181 96.519745,7.269532 101.655220,7.364408 
	C106.634041,7.456391 109.061371,11.098976 109.066299,18.823051 
	C109.091156,57.792950 109.080780,96.762871 109.067261,135.732788 
	C109.066689,137.394745 109.072151,139.083359 108.799103,140.713379 
	C108.084526,144.979248 105.435799,147.106308 101.132858,146.946823 
	C97.022461,146.794449 94.472504,144.495026 94.241447,140.462616 
	C93.908478,134.651443 94.033989,128.812759 94.007027,122.985619 
	C93.978516,116.823868 94.000641,110.661880 94.000656,104.000000 
z"/>
<path fill="#324F54" opacity="1.000000" stroke="none" 
	d="
M50.000000,178.933990 
	C38.858948,178.932892 28.217854,178.946426 17.576880,178.917175 
	C15.753513,178.912170 13.892442,178.922241 12.115852,178.578613 
	C8.853823,177.947662 6.570672,176.019211 6.570855,172.516296 
	C6.571038,169.014114 8.824826,167.104355 12.118816,166.480011 
	C13.575811,166.203873 15.095884,166.180496 16.587463,166.178986 
	C34.876740,166.160355 53.166107,166.139160 71.455307,166.181900 
	C78.146545,166.197540 81.562874,168.426758 81.547905,172.526947 
	C81.532944,176.625412 78.070389,178.861664 71.449409,178.913483 
	C64.466644,178.968140 57.483166,178.931137 50.000000,178.933990 
z"/>
<path fill="#335156" opacity="1.000000" stroke="none" 
	d="
M20.064320,203.085083 
	C17.244932,203.026031 14.899899,203.108643 12.586812,202.875000 
	C8.994344,202.512115 6.552866,200.640961 6.658000,196.794006 
	C6.756161,193.202225 9.168283,191.493134 12.533913,191.183502 
	C14.850104,190.970428 17.193317,191.009369 19.524506,191.007690 
	C36.352520,190.995590 53.180546,190.998993 70.008568,191.006805 
	C71.674042,191.007584 73.345657,190.992065 75.003700,191.121475 
	C78.803612,191.418060 81.539825,193.195068 81.394279,197.288300 
	C81.260284,201.056427 78.667229,202.871170 75.033333,202.959915 
	C69.704666,203.090073 64.371902,203.073990 59.040844,203.079880 
	C46.211575,203.094070 33.382278,203.084808 20.064320,203.085083 
z"/>
</svg>